<svg width="32" height="32" viewBox="0 0 32 32" fill="none" xmlns="http://www.w3.org/2000/svg">
<rect width="32" height="32" rx="2.66667" fill="#E1F1FD"/>
<g clip-path="url(#clip0_4029_1133)">
<path d="M21.9777 20.0603C22.1671 18.7152 22.261 17.3584 22.259 16C22.261 14.6416 22.1671 13.2848 21.9777 11.9397H27.2957C28.2355 14.565 28.2355 17.435 27.2957 20.0603H21.9777ZM15.9988 28C14.8269 28 13.6307 26.7972 12.7133 24.7005C12.2943 23.7428 11.953 22.6511 11.6976 21.4661H20.3001C20.0446 22.6506 19.7033 23.7423 19.2843 24.7005C18.3669 26.7972 17.1707 28 15.9988 28ZM11.4407 20.0603C11.0457 17.3678 11.0457 14.6322 11.4407 11.9397H20.5569C20.7567 13.2839 20.8557 14.6411 20.8532 16C20.8557 17.3589 20.7567 18.7161 20.5569 20.0603H11.4407ZM4.70194 20.0603C3.76211 17.435 3.76211 14.565 4.70194 11.9397H10.0199C9.64429 14.6335 9.64429 17.3665 10.0199 20.0603H4.70194ZM15.9988 4C17.1707 4 18.3669 5.20234 19.2843 7.29953C19.7033 8.25719 20.0446 9.34891 20.3001 10.5339H11.6976C11.953 9.34937 12.2943 8.25766 12.7133 7.29953C13.6307 5.20234 14.8269 4 15.9988 4ZM26.6863 10.5334H21.7354C21.4541 9.14125 21.0632 7.85641 20.5729 6.73656C20.1758 5.82813 19.7258 5.05891 19.2332 4.43922C20.8307 4.88161 22.3184 5.652 23.6017 6.70126C24.8849 7.75053 25.9355 9.05565 26.6863 10.5334ZM12.7644 4.43875C12.2732 5.05891 11.8237 5.82766 11.4262 6.73563C10.9358 7.85641 10.5454 9.14125 10.2637 10.5325H5.31132C6.06235 9.05489 7.11295 7.74992 8.39616 6.70075C9.67937 5.65159 11.1671 4.88122 12.7644 4.43875ZM5.31132 21.4666H10.2623C10.5435 22.8587 10.9344 24.1436 11.4248 25.2634C11.8223 26.1714 12.2718 26.9402 12.763 27.5603C11.1659 27.1178 9.67838 26.3474 8.3954 25.2982C7.11242 24.2491 6.06208 22.9441 5.31132 21.4666ZM19.2332 27.5603C19.7244 26.9402 20.1744 26.1714 20.5715 25.2634C21.0618 24.1427 21.4523 22.8578 21.734 21.4666H26.6863C25.9355 22.9444 24.8849 24.2496 23.6017 25.2989C22.3185 26.3483 20.8307 27.1188 19.2332 27.5613V27.5603Z" fill="#22A4EB"/>
</g>
<defs>
<clipPath id="clip0_4029_1133">
<rect width="24" height="24" fill="white" transform="translate(4 4)"/>
</clipPath>
</defs>
</svg>
