<svg width="163" height="13" viewBox="0 0 163 13" fill="none" xmlns="http://www.w3.org/2000/svg">
<path d="M6.77733 4.54148C6.74718 4.16466 6.60587 3.87073 6.3534 3.65971C6.1047 3.44869 5.72599 3.34318 5.21728 3.34318C4.89321 3.34318 4.62755 3.38275 4.4203 3.46188C4.21681 3.53725 4.06608 3.64087 3.96811 3.77276C3.87013 3.90465 3.81926 4.05538 3.81549 4.22495C3.80796 4.36437 3.83245 4.49061 3.88897 4.60366C3.94927 4.71294 4.04347 4.81279 4.17159 4.90323C4.29971 4.9899 4.46363 5.06903 4.66335 5.14063C4.86306 5.21223 5.10046 5.27629 5.37554 5.33281L6.32514 5.5363C6.96574 5.67195 7.51402 5.85094 7.96998 6.07327C8.42593 6.2956 8.79899 6.55749 9.08914 6.85895C9.3793 7.15664 9.5922 7.49201 9.72786 7.86507C9.86728 8.23812 9.93888 8.64509 9.94265 9.08598C9.93888 9.84716 9.74858 10.4915 9.37176 11.0191C8.99494 11.5466 8.45608 11.948 7.75519 12.223C7.05806 12.4981 6.21963 12.6357 5.23989 12.6357C4.23377 12.6357 3.35577 12.4868 2.60589 12.1891C1.85978 11.8914 1.27947 11.4336 0.864963 10.8156C0.454226 10.1938 0.246972 9.39874 0.243204 8.4303H3.22765C3.24649 8.78452 3.33504 9.08221 3.49331 9.32338C3.65158 9.56454 3.8739 9.7473 4.16029 9.87165C4.45044 9.99601 4.79524 10.0582 5.19467 10.0582C5.53004 10.0582 5.81078 10.0167 6.03687 9.93383C6.26296 9.85093 6.43442 9.736 6.55123 9.58904C6.66805 9.44207 6.72834 9.27439 6.73211 9.08598C6.72834 8.90887 6.66993 8.75437 6.55689 8.62248C6.44761 8.48683 6.26673 8.36624 6.01426 8.26073C5.76179 8.15145 5.42076 8.04971 4.99118 7.9555L3.8381 7.7068C2.81314 7.48448 2.00486 7.1133 1.41324 6.59329C0.825397 6.0695 0.533359 5.35542 0.537127 4.45104C0.533359 3.71624 0.729307 3.07375 1.12497 2.52359C1.52441 1.96966 2.07645 1.5382 2.78111 1.2292C3.48954 0.920204 4.3016 0.765707 5.21728 0.765707C6.1518 0.765707 6.96009 0.922089 7.64214 1.23485C8.32419 1.54762 8.84986 1.9885 9.21915 2.5575C9.5922 3.12274 9.78061 3.78407 9.78438 4.54148H6.77733ZM11.1381 0.923973H15.0496L17.7401 7.48071H17.8757L20.5663 0.923973H24.4777V12.5H21.4028V5.80761H21.3124L18.7349 12.4096H16.8809L14.3034 5.76239H14.213V12.5H11.1381V0.923973ZM28.9741 12.5H25.5827L29.4037 0.923973H33.6995L37.5205 12.5H34.1291L31.5968 4.1119H31.5064L28.9741 12.5ZM28.3411 7.9329H34.7169V10.2843H28.3411V7.9329ZM38.6354 12.5V0.923973H43.6321C44.4913 0.923973 45.243 1.08035 45.8874 1.39312C46.5318 1.70588 47.0329 2.15619 47.3909 2.74403C47.7489 3.33188 47.9279 4.03654 47.9279 4.85801C47.9279 5.68703 47.7433 6.38603 47.374 6.95504C47.0084 7.52404 46.4941 7.95362 45.8309 8.24378C45.1714 8.53393 44.4008 8.67901 43.5191 8.67901H40.5346V6.23719H42.886C43.2553 6.23719 43.5699 6.19197 43.8299 6.10153C44.0937 6.00733 44.2953 5.85848 44.4347 5.655C44.5779 5.45151 44.6495 5.18585 44.6495 4.85801C44.6495 4.52641 44.5779 4.25698 44.4347 4.04973C44.2953 3.83871 44.0937 3.68421 43.8299 3.58623C43.5699 3.48449 43.2553 3.43362 42.886 3.43362H41.7781V12.5H38.6354ZM45.4183 7.18678L48.3123 12.5H44.8982L42.0721 7.18678H45.4183ZM48.951 3.45623V0.923973H59.0122V3.45623H55.5303V12.5H52.4328V3.45623H48.951ZM63.3659 12.5V0.923973H68.3626C69.2217 0.923973 69.9735 1.09354 70.6179 1.43269C71.2622 1.77183 71.7634 2.24851 72.1214 2.86273C72.4794 3.47695 72.6584 4.1948 72.6584 5.01628C72.6584 5.84529 72.4737 6.56314 72.1044 7.16983C71.7389 7.77651 71.2246 8.24378 70.5614 8.57161C69.9019 8.89945 69.1313 9.06337 68.2495 9.06337H65.2651V6.62155H67.6165C67.9858 6.62155 68.3004 6.55749 68.5604 6.42937C68.8242 6.29748 69.0258 6.11095 69.1652 5.86979C69.3084 5.62862 69.38 5.34412 69.38 5.01628C69.38 4.68467 69.3084 4.40206 69.1652 4.16843C69.0258 3.93103 68.8242 3.75015 68.5604 3.6258C68.3004 3.49768 67.9858 3.43362 67.6165 3.43362H66.5086V12.5H63.3659ZM75.3729 12.5H71.9815L75.8025 0.923973H80.0983L83.9193 12.5H80.5279L77.9956 4.1119H77.9052L75.3729 12.5ZM74.7399 7.9329H81.1157V10.2843H74.7399V7.9329ZM83.2565 3.45623V0.923973H93.3177V3.45623H89.8359V12.5H86.7384V3.45623H83.2565ZM94.5005 12.5V0.923973H97.6432V5.44586H101.803V0.923973H104.946V12.5H101.803V7.97811H97.6432V12.5H94.5005ZM112.678 4.54148C112.648 4.16466 112.507 3.87073 112.255 3.65971C112.006 3.44869 111.627 3.34318 111.118 3.34318C110.794 3.34318 110.529 3.38275 110.321 3.46188C110.118 3.53725 109.967 3.64087 109.869 3.77276C109.771 3.90465 109.72 4.05538 109.717 4.22495C109.709 4.36437 109.734 4.49061 109.79 4.60366C109.85 4.71294 109.945 4.81279 110.073 4.90323C110.201 4.9899 110.365 5.06903 110.564 5.14063C110.764 5.21223 111.002 5.27629 111.277 5.33281L112.226 5.5363C112.867 5.67195 113.415 5.85094 113.871 6.07327C114.327 6.2956 114.7 6.55749 114.99 6.85895C115.28 7.15664 115.493 7.49201 115.629 7.86507C115.768 8.23812 115.84 8.64509 115.844 9.08598C115.84 9.84716 115.65 10.4915 115.273 11.0191C114.896 11.5466 114.357 11.948 113.656 12.223C112.959 12.4981 112.121 12.6357 111.141 12.6357C110.135 12.6357 109.257 12.4868 108.507 12.1891C107.761 11.8914 107.181 11.4336 106.766 10.8156C106.355 10.1938 106.148 9.39874 106.144 8.4303H109.129C109.148 8.78452 109.236 9.08221 109.394 9.32338C109.553 9.56454 109.775 9.7473 110.061 9.87165C110.352 9.99601 110.696 10.0582 111.096 10.0582C111.431 10.0582 111.712 10.0167 111.938 9.93383C112.164 9.85093 112.336 9.736 112.452 9.58904C112.569 9.44207 112.629 9.27439 112.633 9.08598C112.629 8.90887 112.571 8.75437 112.458 8.62248C112.349 8.48683 112.168 8.36624 111.915 8.26073C111.663 8.15145 111.322 8.04971 110.892 7.9555L109.739 7.7068C108.714 7.48448 107.906 7.1133 107.314 6.59329C106.727 6.0695 106.435 5.35542 106.438 4.45104C106.435 3.71624 106.63 3.07375 107.026 2.52359C107.426 1.96966 107.978 1.5382 108.682 1.2292C109.391 0.920204 110.203 0.765707 111.118 0.765707C112.053 0.765707 112.861 0.922089 113.543 1.23485C114.225 1.54762 114.751 1.9885 115.12 2.5575C115.493 3.12274 115.682 3.78407 115.686 4.54148H112.678ZM117.039 12.5V0.923973H120.182V5.44586H124.342V0.923973H127.485V12.5H124.342V7.97811H120.182V12.5H117.039ZM131.984 12.5H128.593L132.414 0.923973H136.709L140.53 12.5H137.139L134.607 4.1119H134.516L131.984 12.5ZM131.351 7.9329H137.727V10.2843H131.351V7.9329ZM141.645 12.5V0.923973H144.788V9.96774H149.468V12.5H141.645ZM153.746 12.5H150.354L154.175 0.923973H158.471L162.292 12.5H158.901L156.368 4.1119H156.278L153.746 12.5ZM153.113 7.9329H159.488V10.2843H153.113V7.9329Z" fill="#2B2B2B"/>
</svg>
